<?xml version="1.0" encoding="UTF-8"?>
<!DOCTYPE svg PUBLIC "-//W3C//DTD SVG 1.1//EN" "http://www.w3.org/Graphics/SVG/1.1/DTD/svg11.dtd">
<!-- Creator: CorelDRAW -->
<svg xmlns="http://www.w3.org/2000/svg" xml:space="preserve"  version="1.1" style="shape-rendering:geometricPrecision; text-rendering:geometricPrecision; image-rendering:optimizeQuality; fill-rule:evenodd; clip-rule:evenodd"
viewBox="0 0 85.18 24.01"
 xmlns:xlink="http://www.w3.org/1999/xlink">
 <defs>
  <style type="text/css">
   <![CDATA[
    .fil1 {fill:#28A44A}
    .fil3 {fill:#A6CE39}
    .fil4 {fill:#EF4923}
    .fil2 {fill:#EF4923}
    .fil0 {fill:#083F88;fill-rule:nonzero}
    .fil5 {fill:#083F88;fill-rule:nonzero}
   ]]>
  </style>
 </defs>
 <g id="Layer_x0020_1">
  <metadata id="CorelCorpID_0Corel-Layer"/>
  <g id="_105553760028896">
   <path class="fil0" d="M26.64 22.62l0.84 0 0.56 -1.72 2.28 0 0.57 1.72 0.94 0 -2.14 -6.34 -0.9 0 -2.16 6.34zm2.52 -5.14l0.03 0 0.88 2.66 -1.77 0 0.87 -2.66zm3.37 5.14l0.85 0 0 -4.72 -0.85 0 0 4.72zm-0.01 -5.6l0.87 0 0 -0.89 -0.87 0 0 0.89zm2.04 5.6l0.85 0 0 -3.61c0.3,-0.21 0.71,-0.34 1.13,-0.34 0.09,0 0.23,0.01 0.35,0.03l0 -0.81c-0.04,-0.03 -0.17,-0.04 -0.28,-0.04 -0.48,0 -0.93,0.27 -1.19,0.58l-0.03 0 0 -0.53 -0.83 0 0 4.72zm3.07 1.39l0.85 0 0 -1.64c0.23,0.14 0.59,0.28 1.09,0.28 1.22,0 2,-0.66 2,-2.41l0 -0.13c0,-1.74 -0.84,-2.3 -1.81,-2.3 -0.54,0 -1,0.2 -1.27,0.47l-0.03 0 0 -0.38 -0.83 0 0 6.11zm1.83 -2.07c-0.43,0 -0.8,-0.15 -0.98,-0.3l0 -2.76c0.18,-0.15 0.56,-0.31 1.02,-0.31 0.75,0 1.16,0.36 1.16,1.59l0 0.19c0,1.2 -0.44,1.57 -1.21,1.57zm4.8 0.77c1.21,0 2.05,-0.89 2.05,-2.39l0 -0.14c0,-1.49 -0.76,-2.37 -2.04,-2.37 -1.23,0 -2.07,0.9 -2.07,2.4l0 0.16c0,1.47 0.75,2.34 2.06,2.34zm0.01 -0.71c-0.66,0 -1.19,-0.37 -1.19,-1.62l0 -0.25c0,-1.04 0.43,-1.58 1.17,-1.58 0.64,0 1.16,0.37 1.16,1.62l0 0.25c0,1.04 -0.43,1.58 -1.15,1.58zm2.92 0.63l0.85 0 0 -3.61c0.3,-0.21 0.71,-0.34 1.13,-0.34 0.09,0 0.23,0.01 0.35,0.03l0 -0.81c-0.04,-0.03 -0.17,-0.04 -0.28,-0.04 -0.48,0 -0.93,0.27 -1.19,0.58l-0.03 0 0 -0.53 -0.83 0 0 4.72zm4.53 0.05c0.41,0 0.61,-0.09 0.79,-0.18l0 -0.61c-0.17,0.03 -0.36,0.06 -0.55,0.06 -0.48,0 -0.61,-0.16 -0.61,-0.58l0 -2.72 1.07 0 0 -0.73 -1.07 0 0 -1.11 -0.86 0 0 1.11 -0.63 0 0 0.73 0.63 0 0 2.85c0,0.86 0.49,1.18 1.22,1.18zm5.37 0.06c1.42,0 2.06,-0.74 2.06,-1.9 0,-1.09 -0.56,-1.51 -1.46,-1.81l-0.59 -0.19c-0.62,-0.2 -0.8,-0.44 -0.8,-0.99 0,-0.56 0.37,-0.87 1.03,-0.87 0.65,0 1.14,0.17 1.5,0.33l0 -0.78c-0.33,-0.18 -0.75,-0.35 -1.5,-0.35 -1.28,0 -1.92,0.72 -1.92,1.75 0,1.03 0.5,1.49 1.32,1.76l0.58 0.2c0.68,0.23 0.91,0.47 0.91,1.03 0,0.63 -0.36,1.03 -1.2,1.03 -0.63,0 -1.22,-0.17 -1.68,-0.4l0 0.78c0.41,0.24 0.98,0.42 1.74,0.42zm4.86 -0.03c0.74,0 1.25,-0.24 1.53,-0.45l0 -0.64c-0.41,0.19 -0.79,0.34 -1.37,0.34 -0.87,0 -1.36,-0.36 -1.42,-1.44l2.94 0 0 -0.44c0,-1.49 -0.58,-2.26 -1.83,-2.26 -1.07,0 -1.98,0.77 -1.98,2.39l0 0.12c0,1.48 0.71,2.39 2.15,2.39zm-0.2 -4.17c0.64,0 0.97,0.36 0.97,1.31l-2.04 0c0.07,-1.06 0.6,-1.31 1.07,-1.31zm2.74 4.09l0.85 0 0 -3.61c0.3,-0.21 0.71,-0.34 1.13,-0.34 0.09,0 0.23,0.01 0.35,0.03l0 -0.81c-0.04,-0.03 -0.17,-0.04 -0.28,-0.04 -0.48,0 -0.93,0.27 -1.19,0.58l-0.04 0 0 -0.53 -0.83 0 0 4.72zm4.27 0l0.87 0 1.62 -4.72 -0.83 0 -1.17 3.58 -0.03 0 -1.16 -3.58 -0.92 0 1.62 4.72zm3.23 0l0.85 0 0 -4.72 -0.85 0 0 4.72zm-0.01 -5.6l0.87 0 0 -0.89 -0.87 0 0 0.89zm3.86 5.68c0.62,0 1.03,-0.17 1.32,-0.37l0 -0.69c-0.23,0.12 -0.63,0.31 -1.19,0.31 -0.87,0 -1.32,-0.48 -1.32,-1.62l0 -0.24c0,-0.99 0.48,-1.52 1.23,-1.52 0.56,0 0.83,0.11 1.22,0.29l0 -0.75c-0.3,-0.18 -0.63,-0.3 -1.22,-0.3 -1.2,0 -2.13,0.76 -2.13,2.41l0 0.16c0,1.56 0.81,2.33 2.08,2.33zm4.01 0c0.74,0 1.25,-0.24 1.53,-0.45l0 -0.64c-0.41,0.19 -0.79,0.34 -1.37,0.34 -0.87,0 -1.36,-0.36 -1.42,-1.44l2.94 0 0 -0.44c0,-1.49 -0.58,-2.26 -1.83,-2.26 -1.07,0 -1.98,0.77 -1.98,2.39l0 0.12c0,1.48 0.71,2.39 2.15,2.39zm-0.2 -4.17c0.64,0 0.97,0.36 0.97,1.31l-2.04 0c0.07,-1.06 0.6,-1.31 1.07,-1.31zm3.91 4.17c1.01,0 1.63,-0.48 1.63,-1.42 0,-0.84 -0.35,-1.18 -1.22,-1.4l-0.42 -0.11c-0.44,-0.13 -0.62,-0.27 -0.62,-0.63 0,-0.41 0.28,-0.58 0.83,-0.58 0.49,0 0.94,0.13 1.17,0.23l0 -0.7c-0.26,-0.14 -0.63,-0.28 -1.24,-0.28 -1.08,0 -1.58,0.56 -1.58,1.41 0,0.83 0.45,1.18 1.11,1.34l0.41 0.12c0.54,0.13 0.7,0.3 0.7,0.67 0,0.4 -0.28,0.63 -0.91,0.63 -0.63,0 -0.96,-0.15 -1.32,-0.3l0 0.68c0.36,0.23 0.87,0.33 1.44,0.33z"/>
   <path class="fil1" d="M2.28 22.62c9.47,-1.8 15.95,-6.62 20.35,-14.55l0 3.87c-5.5,7.11 -11.85,9.67 -18.18,10.68l-2.17 0zm-2.28 -2.59c7.09,-4.02 12.59,-10.5 13.74,-20.03l2.06 0c-1.83,10.25 -7.45,16.7 -15.8,20.4l0 -0.37z"/>
   <path class="fil2" d="M22.62 11.95l0 9.04c0,0.9 -0.74,1.63 -1.64,1.63l-16.54 0c6.32,-1 12.68,-3.56 18.18,-10.68z"/>
   <path class="fil3" d="M15.8 0l5.18 0c0.9,0 1.64,0.74 1.64,1.64l0 6.43c-4.4,7.94 -10.88,12.75 -20.35,14.55l-0.64 0c-0.9,0 -1.64,-0.74 -1.64,-1.63l0 -0.59c8.35,-3.71 13.97,-10.16 15.8,-20.4z"/>
   <path class="fil4" d="M1.64 0l12.1 0c-1.15,9.53 -6.65,16.01 -13.74,20.03l0 -18.4c0,-0.9 0.74,-1.64 1.64,-1.64z"/>
   <path class="fil5" d="M50.47 12.17c1.73,-0.49 2.41,-1.47 2.41,-3.06 0,-4.93 -5.92,-3.34 -6,-5.96 0.01,-1.24 1.38,-1.21 2.54,-1.21 1.16,0.01 2.28,0.24 2.9,0.43l0 -1.89c-0.85,-0.38 -4.45,-0.78 -5.98,-0.12 -1.15,0.49 -1.81,1.42 -1.81,2.69 0.02,4.78 6,3.28 6.02,6.04 0,2.34 -4.07,1.4 -5.67,1.26l0.49 1.78c0.95,0.28 3.8,0.41 5.1,0.05zm-18.11 -3.44l0 -8.73 -2.28 0 0 8.52c0,1.91 -1.66,2.3 -3.19,1.69l-0.25 1.8c1.99,0.92 5.84,0.33 5.72,-3.28zm7.54 -1.67l-1.4 -4.75 -1.4 4.75 2.79 0zm0.28 -6.82l3.69 12.15 -2.33 0 -1.06 -3.48 -3.96 0 -1.06 3.48 -2.33 0 3.69 -12.15 3.36 0z"/>
  </g>
 </g>
</svg>
