<?xml version="1.0" encoding="UTF-8"?>
<!DOCTYPE svg PUBLIC "-//W3C//DTD SVG 1.1//EN" "http://www.w3.org/Graphics/SVG/1.1/DTD/svg11.dtd">
<!-- Creator: CorelDRAW -->
<svg xmlns="http://www.w3.org/2000/svg" xml:space="preserve" width="14.3744mm" height="2.462mm" version="1.1" style="shape-rendering:geometricPrecision; text-rendering:geometricPrecision; image-rendering:optimizeQuality; fill-rule:evenodd; clip-rule:evenodd"
viewBox="0 0 62.63 10.73"
 xmlns:xlink="http://www.w3.org/1999/xlink">
 <defs>
  <style type="text/css">
   <![CDATA[
    .fil0 {fill:#083F88;fill-rule:nonzero}
   ]]>
  </style>
 </defs>
 <g id="Layer_x0020_1">
  <metadata id="CorelCorpID_0Corel-Layer"/>
  <path class="fil0" d="M-0 10.06l0.41 0 0.27 -0.83 1.1 0 0.28 0.83 0.45 0 -1.03 -3.06 -0.44 0 -1.04 3.06zm1.22 -2.48l0.01 0 0.42 1.28 -0.86 0 0.42 -1.28zm1.63 2.48l0.41 0 0 -2.28 -0.41 0 0 2.28zm-0 -2.71l0.42 0 0 -0.43 -0.42 0 0 0.43zm0.99 2.71l0.41 0 0 -1.74c0.15,-0.1 0.34,-0.17 0.55,-0.17 0.04,0 0.11,0 0.17,0.01l0 -0.39c-0.02,-0.01 -0.08,-0.02 -0.13,-0.02 -0.23,0 -0.45,0.13 -0.57,0.28l-0.02 0 0 -0.25 -0.4 0 0 2.28zm1.48 0.67l0.41 0 0 -0.79c0.11,0.07 0.29,0.13 0.52,0.13 0.59,0 0.97,-0.32 0.97,-1.16l0 -0.06c0,-0.84 -0.41,-1.11 -0.87,-1.11 -0.26,0 -0.48,0.1 -0.61,0.23l-0.02 0 0 -0.18 -0.4 0 0 2.95zm0.89 -1c-0.21,0 -0.39,-0.07 -0.47,-0.14l0 -1.33c0.09,-0.07 0.27,-0.15 0.5,-0.15 0.36,0 0.56,0.17 0.56,0.77l0 0.09c0,0.58 -0.21,0.76 -0.58,0.76zm2.32 0.37c0.58,0 0.99,-0.43 0.99,-1.15l0 -0.07c0,-0.72 -0.37,-1.15 -0.99,-1.15 -0.6,0 -1,0.43 -1,1.16l0 0.08c0,0.71 0.36,1.13 0.99,1.13zm0 -0.34c-0.32,0 -0.58,-0.18 -0.58,-0.78l0 -0.12c0,-0.5 0.21,-0.76 0.57,-0.76 0.31,0 0.56,0.18 0.56,0.78l0 0.12c0,0.5 -0.21,0.76 -0.55,0.76zm1.41 0.3l0.41 0 0 -1.74c0.15,-0.1 0.34,-0.17 0.55,-0.17 0.04,0 0.11,0 0.17,0.01l0 -0.39c-0.02,-0.01 -0.08,-0.02 -0.13,-0.02 -0.23,0 -0.45,0.13 -0.58,0.28l-0.02 0 0 -0.25 -0.4 0 0 2.28zm2.19 0.02c0.2,0 0.29,-0.04 0.38,-0.08l0 -0.29c-0.08,0.01 -0.18,0.03 -0.26,0.03 -0.23,0 -0.29,-0.08 -0.29,-0.28l0 -1.31 0.52 0 0 -0.35 -0.52 0 0 -0.54 -0.42 0 0 0.54 -0.3 0 0 0.35 0.3 0 0 1.38c0,0.42 0.24,0.57 0.59,0.57zm2.59 0.03c0.68,0 0.99,-0.36 0.99,-0.92 0,-0.53 -0.27,-0.73 -0.7,-0.88l-0.29 -0.09c-0.3,-0.1 -0.39,-0.21 -0.39,-0.48 0,-0.27 0.18,-0.42 0.5,-0.42 0.32,0 0.55,0.08 0.73,0.16l0 -0.38c-0.16,-0.08 -0.36,-0.17 -0.73,-0.17 -0.62,0 -0.93,0.35 -0.93,0.85 0,0.5 0.24,0.72 0.64,0.85l0.28 0.1c0.33,0.11 0.44,0.23 0.44,0.5 0,0.3 -0.17,0.5 -0.58,0.5 -0.31,0 -0.59,-0.08 -0.81,-0.19l0 0.38c0.2,0.12 0.47,0.2 0.84,0.2zm2.35 -0.01c0.36,0 0.6,-0.12 0.74,-0.22l0 -0.31c-0.2,0.09 -0.38,0.17 -0.66,0.17 -0.42,0 -0.66,-0.17 -0.69,-0.7l1.42 0 0 -0.21c0,-0.72 -0.28,-1.09 -0.89,-1.09 -0.52,0 -0.96,0.37 -0.96,1.15l0 0.06c0,0.71 0.34,1.15 1.04,1.15zm-0.1 -2.02c0.31,0 0.47,0.17 0.47,0.63l-0.99 0c0.03,-0.51 0.29,-0.63 0.52,-0.63zm1.32 1.98l0.41 0 0 -1.74c0.15,-0.1 0.34,-0.17 0.55,-0.17 0.04,0 0.11,0 0.17,0.01l0 -0.39c-0.02,-0.01 -0.08,-0.02 -0.13,-0.02 -0.23,0 -0.45,0.13 -0.58,0.28l-0.02 0 0 -0.25 -0.4 0 0 2.28zm2.06 0l0.42 0 0.78 -2.28 -0.4 0 -0.57 1.73 -0.01 0 -0.56 -1.73 -0.44 0 0.78 2.28zm1.56 0l0.41 0 0 -2.28 -0.41 0 0 2.28zm-0 -2.71l0.42 0 0 -0.43 -0.42 0 0 0.43zm1.86 2.75c0.3,0 0.49,-0.08 0.64,-0.18l0 -0.34c-0.11,0.06 -0.3,0.15 -0.58,0.15 -0.42,0 -0.64,-0.23 -0.64,-0.78l0 -0.12c0,-0.48 0.23,-0.73 0.6,-0.73 0.27,0 0.4,0.05 0.59,0.14l0 -0.36c-0.14,-0.09 -0.31,-0.15 -0.59,-0.15 -0.58,0 -1.03,0.37 -1.03,1.16l0 0.08c0,0.76 0.39,1.13 1,1.13zm1.93 0c0.36,0 0.6,-0.12 0.74,-0.22l0 -0.31c-0.2,0.09 -0.38,0.17 -0.66,0.17 -0.42,0 -0.66,-0.17 -0.69,-0.7l1.42 0 0 -0.21c0,-0.72 -0.28,-1.09 -0.89,-1.09 -0.52,0 -0.96,0.37 -0.96,1.15l0 0.06c0,0.71 0.34,1.15 1.04,1.15zm-0.1 -2.02c0.31,0 0.47,0.17 0.47,0.63l-0.99 0c0.03,-0.51 0.29,-0.63 0.52,-0.63zm1.89 2.01c0.49,0 0.79,-0.23 0.79,-0.68 0,-0.41 -0.17,-0.57 -0.59,-0.68l-0.2 -0.05c-0.21,-0.06 -0.3,-0.13 -0.3,-0.3 0,-0.2 0.13,-0.28 0.4,-0.28 0.24,0 0.45,0.06 0.57,0.11l0 -0.34c-0.13,-0.07 -0.31,-0.13 -0.6,-0.13 -0.52,0 -0.76,0.27 -0.76,0.68 0,0.4 0.22,0.57 0.54,0.65l0.2 0.06c0.26,0.06 0.34,0.15 0.34,0.32 0,0.19 -0.13,0.3 -0.44,0.3 -0.3,0 -0.46,-0.07 -0.64,-0.14l0 0.33c0.17,0.11 0.42,0.16 0.7,0.16zm-26.58 -5.07c0.91,0 1.34,-0.57 1.34,-1.33l0 -3.38 -0.92 0 0 3.28c0,0.45 -0.22,0.66 -0.65,0.66 -0.27,0 -0.5,-0.05 -0.68,-0.12l0 0.69c0.23,0.12 0.49,0.2 0.91,0.2zm2.97 0.02c0.42,0 0.7,-0.14 0.84,-0.35l0.04 0 0.06 0.29 0.68 0 0 -2.53c0,-0.76 -0.45,-1.06 -1.23,-1.06 -0.46,0 -0.83,0.07 -1.16,0.19l0 0.63c0.22,-0.07 0.51,-0.11 0.84,-0.11 0.54,0 0.72,0.1 0.72,0.54l0 0.24 -0.73 0.1c-0.67,0.1 -1.11,0.4 -1.11,1.07 0,0.68 0.43,1 1.04,1zm0.26 -0.61c-0.28,0 -0.47,-0.14 -0.47,-0.46 0,-0.33 0.15,-0.45 0.47,-0.48l0.54 -0.06 0 0.82c-0.1,0.11 -0.33,0.19 -0.54,0.19zm3.04 0.61c0.86,0 1.32,-0.38 1.32,-1.12 0,-0.61 -0.25,-0.91 -0.9,-1.06l-0.31 -0.07c-0.31,-0.06 -0.43,-0.14 -0.43,-0.37 0,-0.24 0.19,-0.37 0.56,-0.37 0.38,0 0.69,0.1 0.89,0.17l0 -0.64c-0.23,-0.11 -0.52,-0.19 -0.98,-0.19 -0.86,0 -1.27,0.43 -1.27,1.09 0,0.65 0.33,0.93 0.85,1.04l0.31 0.07c0.34,0.07 0.46,0.17 0.46,0.4 0,0.25 -0.18,0.38 -0.63,0.38 -0.46,0 -0.72,-0.1 -0.98,-0.22l0 0.64c0.26,0.15 0.66,0.25 1.1,0.25zm2.73 0c0.42,0 0.7,-0.14 0.84,-0.35l0.04 0 0.06 0.29 0.68 0 0 -2.53c0,-0.76 -0.45,-1.06 -1.23,-1.06 -0.46,0 -0.83,0.07 -1.16,0.19l0 0.63c0.22,-0.07 0.51,-0.11 0.84,-0.11 0.54,0 0.72,0.1 0.72,0.54l0 0.24 -0.73 0.1c-0.67,0.1 -1.11,0.4 -1.11,1.07 0,0.68 0.43,1 1.04,1zm0.26 -0.61c-0.27,0 -0.47,-0.14 -0.47,-0.46 0,-0.33 0.15,-0.45 0.47,-0.48l0.54 -0.06 0 0.82c-0.1,0.11 -0.33,0.19 -0.54,0.19zm3.47 0.54l0.83 0 0.36 -1.12 1.56 0 0.36 1.12 0.93 0 -1.54 -4.67 -0.95 0 -1.56 4.67zm1.94 -3.58l0.03 0 0.57 1.77 -1.14 0 0.55 -1.77zm2.54 3.58l0.84 0 0 -2.7c0.19,-0.08 0.45,-0.18 0.68,-0.18 0.41,0 0.52,0.14 0.52,0.47l0 2.4 0.84 0 0 -2.62c0,-0.7 -0.33,-0.98 -0.97,-0.98 -0.41,0 -0.8,0.16 -1.08,0.38l-0.03 0 0 -0.31 -0.81 0 0 3.53zm4.85 1.01c1.18,0 1.71,-0.48 1.71,-1.19 0,-0.68 -0.44,-0.93 -1.09,-0.93l-0.92 0c-0.2,0 -0.27,-0.01 -0.27,-0.18 0,-0.07 0.03,-0.1 0.1,-0.16 0.15,0.05 0.32,0.06 0.51,0.06 0.77,0 1.34,-0.32 1.34,-1.08l0 -0.05c0,-0.21 -0.05,-0.33 -0.16,-0.46l0.5 0 0 -0.55 -1.13 0c-0.17,-0.04 -0.34,-0.06 -0.54,-0.06 -0.81,0 -1.35,0.36 -1.35,1.1l0 0.05c0,0.42 0.15,0.67 0.42,0.84 -0.26,0.21 -0.39,0.32 -0.39,0.59 0,0.27 0.14,0.4 0.35,0.48l0 0.03c-0.35,0.12 -0.62,0.33 -0.62,0.69 0,0.52 0.49,0.81 1.56,0.81zm-0.01 -0.6c-0.54,0 -0.73,-0.1 -0.73,-0.35 0,-0.22 0.13,-0.33 0.3,-0.4l0.81 0c0.38,0 0.49,0.05 0.49,0.31 0,0.29 -0.22,0.44 -0.87,0.44zm0.04 -2.34c-0.34,0 -0.54,-0.14 -0.54,-0.52l0 -0.08c0,-0.35 0.19,-0.5 0.54,-0.5 0.32,0 0.53,0.11 0.53,0.51l0 0.07c0,0.38 -0.2,0.52 -0.53,0.52zm2.12 1.93l0.84 0 0 -4.98 -0.84 0 0 4.98zm1.99 0l0.91 0c-0.47,-0.76 -0.71,-1.13 -1.18,-1.89l1.1 -1.63 -0.86 0c-0.45,0.67 -0.68,1.01 -1.11,1.7 0.44,0.74 0.67,1.09 1.14,1.83zm2.22 0.06c0.42,0 0.7,-0.14 0.84,-0.35l0.04 0 0.06 0.29 0.68 0 0 -2.53c0,-0.76 -0.45,-1.06 -1.23,-1.06 -0.46,0 -0.83,0.07 -1.16,0.19l0 0.63c0.22,-0.07 0.51,-0.11 0.84,-0.11 0.54,0 0.72,0.1 0.72,0.54l0 0.24 -0.73 0.1c-0.67,0.1 -1.11,0.4 -1.11,1.07 0,0.68 0.43,1 1.04,1zm0.26 -0.61c-0.28,0 -0.47,-0.14 -0.47,-0.46 0,-0.33 0.15,-0.45 0.47,-0.48l0.54 -0.06 0 0.82c-0.1,0.11 -0.33,0.19 -0.54,0.19zm3.04 0.61c0.86,0 1.32,-0.38 1.32,-1.12 0,-0.61 -0.25,-0.91 -0.9,-1.06l-0.31 -0.07c-0.31,-0.06 -0.43,-0.14 -0.43,-0.37 0,-0.24 0.19,-0.37 0.56,-0.37 0.38,0 0.69,0.1 0.89,0.17l0 -0.64c-0.23,-0.11 -0.52,-0.19 -0.98,-0.19 -0.86,0 -1.27,0.43 -1.27,1.09 0,0.65 0.33,0.93 0.85,1.04l0.31 0.07c0.34,0.07 0.46,0.17 0.46,0.4 0,0.25 -0.18,0.38 -0.63,0.38 -0.46,0 -0.72,-0.1 -0.98,-0.22l0 0.64c0.26,0.15 0.67,0.25 1.1,0.25zm2.73 0c0.42,0 0.7,-0.14 0.84,-0.35l0.04 0 0.06 0.29 0.68 0 0 -2.53c0,-0.76 -0.45,-1.06 -1.23,-1.06 -0.46,0 -0.83,0.07 -1.16,0.19l0 0.63c0.22,-0.07 0.51,-0.11 0.84,-0.11 0.54,0 0.72,0.1 0.72,0.54l0 0.24 -0.73 0.1c-0.67,0.1 -1.11,0.4 -1.11,1.07 0,0.68 0.43,1 1.04,1zm0.26 -0.61c-0.28,0 -0.47,-0.14 -0.47,-0.46 0,-0.33 0.15,-0.45 0.47,-0.48l0.54 -0.06 0 0.82c-0.1,0.11 -0.33,0.19 -0.54,0.19zm4.99 0.62c1.08,0 1.61,-0.55 1.61,-1.46 0,-0.86 -0.42,-1.18 -1.13,-1.38l-0.38 -0.11c-0.42,-0.12 -0.56,-0.26 -0.56,-0.59 0,-0.35 0.24,-0.55 0.69,-0.55 0.49,0 0.85,0.13 1.14,0.24l0 -0.73c-0.26,-0.14 -0.59,-0.25 -1.2,-0.25 -1.01,0 -1.5,0.55 -1.5,1.36 0,0.87 0.4,1.19 1.04,1.37l0.4 0.11c0.47,0.13 0.61,0.27 0.61,0.63 0,0.37 -0.24,0.61 -0.8,0.61 -0.49,0 -0.9,-0.12 -1.26,-0.29l0 0.74c0.31,0.17 0.75,0.29 1.34,0.29zm3.68 -0.01c0.58,0 0.97,-0.16 1.2,-0.33l0 -0.59c-0.28,0.13 -0.59,0.23 -1,0.23 -0.6,0 -0.95,-0.22 -1,-0.91l2.12 0 0 -0.33c0,-1.13 -0.42,-1.74 -1.43,-1.74 -0.89,0 -1.55,0.61 -1.55,1.78l0 0.09c0,1.13 0.56,1.78 1.67,1.78zm-0.13 -3.02c0.41,0 0.62,0.23 0.62,0.85l-1.3 0c0.04,-0.67 0.38,-0.85 0.68,-0.85zm2.02 2.96l0.84 0 0 -2.7c0.19,-0.07 0.4,-0.18 0.61,-0.18 0.35,0 0.47,0.14 0.47,0.46l0 2.41 0.84 0 0 -2.55c0,-0.05 0,-0.09 -0.01,-0.14 0.22,-0.09 0.42,-0.18 0.62,-0.18 0.35,0 0.47,0.14 0.47,0.46l0 2.41 0.84 0 0 -2.64c0,-0.69 -0.34,-0.96 -0.91,-0.96 -0.38,0 -0.75,0.15 -1.09,0.4l-0.03 0c-0.16,-0.27 -0.43,-0.4 -0.8,-0.4 -0.4,0 -0.74,0.17 -1.01,0.4l-0.03 0 0 -0.33 -0.81 0 0 3.53zm6.89 0.06c0.58,0 0.97,-0.16 1.2,-0.33l0 -0.59c-0.28,0.13 -0.59,0.23 -1,0.23 -0.6,0 -0.95,-0.22 -1,-0.91l2.12 0 0 -0.33c0,-1.13 -0.42,-1.74 -1.43,-1.74 -0.89,0 -1.55,0.61 -1.55,1.78l0 0.09c0,1.13 0.56,1.78 1.67,1.78zm-0.13 -3.02c0.41,0 0.62,0.23 0.62,0.85l-1.3 0c0.04,-0.67 0.38,-0.85 0.68,-0.85zm2.96 3.02c0.86,0 1.32,-0.38 1.32,-1.12 0,-0.61 -0.25,-0.91 -0.9,-1.06l-0.31 -0.07c-0.31,-0.06 -0.43,-0.14 -0.43,-0.37 0,-0.24 0.19,-0.37 0.56,-0.37 0.38,0 0.69,0.1 0.89,0.17l0 -0.64c-0.23,-0.11 -0.52,-0.19 -0.98,-0.19 -0.86,0 -1.27,0.43 -1.27,1.09 0,0.65 0.33,0.93 0.85,1.04l0.31 0.07c0.34,0.07 0.46,0.17 0.46,0.4 0,0.25 -0.18,0.38 -0.63,0.38 -0.46,0 -0.72,-0.1 -0.98,-0.22l0 0.64c0.26,0.15 0.66,0.25 1.1,0.25zm3.05 -0.02c0.33,0 0.52,-0.07 0.65,-0.14l0 -0.59c-0.1,0.03 -0.24,0.05 -0.36,0.05 -0.31,0 -0.43,-0.1 -0.43,-0.4l0 -1.83 0.76 0 0 -0.66 -0.76 0 0 -0.83 -0.83 0 0 0.83 -0.44 0 0 0.66 0.44 0 0 1.97c0,0.7 0.37,0.94 0.97,0.94zm2.05 0.02c0.42,0 0.7,-0.14 0.84,-0.35l0.04 0 0.06 0.29 0.68 0 0 -2.53c0,-0.76 -0.45,-1.06 -1.23,-1.06 -0.46,0 -0.83,0.07 -1.16,0.19l0 0.63c0.22,-0.07 0.51,-0.11 0.84,-0.11 0.54,0 0.72,0.1 0.72,0.54l0 0.24 -0.73 0.1c-0.67,0.1 -1.11,0.4 -1.11,1.07 0,0.68 0.43,1 1.04,1zm0.26 -0.61c-0.28,0 -0.47,-0.14 -0.47,-0.46 0,-0.33 0.15,-0.45 0.47,-0.48l0.54 -0.06 0 0.82c-0.1,0.11 -0.33,0.19 -0.54,0.19z"/>
 </g>
</svg>
31c-0.2,0.09 -0.38,0.17 -0.66,0.17 -0.42,0 -0.66,-0.17 -0.69,-0.7l1.42 0 0 -0.21c0,-0.72 -0.28,-1.09 -0.89,-1.09 -0.52,0 -0.96,0.37 -0.96,1.15l0 0.06c0,0.71 0.34,1.15 1.04,1.15zm-0.1 -2.02c0.31,0 0.47,0.17 0.47,0.63l-0.99 0c0.03,-0.51 0.29,-0.63 0.52,-0.63zm1.32 1.98l0.41 0 0 -1.74c0.15,-0.1 0.34,-0.17 0.55,-0.17 0.04,0 0.11,0 0.17,0.01l0 -0.39c-0.02,-0.01 -0.08,-0.02 -0.13,-0.02 -0.23,0 -0.45,0.13 -0.58,0.28l-0.02 0 0 -0.25 -0.4 0 0 2.28zm2.06 0l0.42 0 0.78 -2.28 -0.4 0 -0.57 1.73 -0.01 0 -0.56 -1.73 -0.44 0 0.78 2.28zm1.56 0l0.41 0 0 -2.28 -0.41 0 0 2.28zm-0 -2.71l0.42 0 0 -0.43 -0.42 0 0 0.43zm1.86 2.75c0.3,0 0.49,-0.08 0.64,-0.18l0 -0.34c-0.11,0.06 -0.3,0.15 -0.58,0.15 -0.42,0 -0.64,-0.23 -0.64,-0.78l0 -0.12c0,-0.48 0.23,-0.73 0.6,-0.73 0.27,0 0.4,0.05 0.59,0.14l0 -0.36c-0.14,-0.09 -0.31,-0.15 -0.59,-0.15 -0.58,0 -1.03,0.37 -1.03,1.16l0 0.08c0,0.76 0.39,1.13 1,1.13zm1.93 0c0.36,0 0.6,-0.12 0.74,-0.22l0 -0.31c-0.2,0.09 -0.38,0.17 -0.66,0.17 -0.42,0 -0.66,-0.17 -0.69,-0.7l1.42 0 0 -0.21c0,-0.72 -0.28,-1.09 -0.89,-1.09 -0.52,0 -0.96,0.37 -0.96,1.15l0 0.06c0,0.71 0.34,1.15 1.04,1.15zm-0.1 -2.02c0.31,0 0.47,0.17 0.47,0.63l-0.99 0c0.03,-0.51 0.29,-0.63 0.52,-0.63zm1.89 2.01c0.49,0 0.79,-0.23 0.79,-0.68 0,-0.41 -0.17,-0.57 -0.59,-0.68l-0.2 -0.05c-0.21,-0.06 -0.3,-0.13 -0.3,-0.3 0,-0.2 0.13,-0.28 0.4,-0.28 0.24,0 0.45,0.06 0.57,0.11l0 -0.34c-0.13,-0.07 -0.31,-0.13 -0.6,-0.13 -0.52,0 -0.76,0.27 -0.76,0.68 0,0.4 0.22,0.57 0.54,0.65l0.2 0.06c0.26,0.06 0.34,0.15 0.34,0.32 0,0.19 -0.13,0.3 -0.44,0.3 -0.3,0 -0.46,-0.07 -0.64,-0.14l0 0.33c0.17,0.11 0.42,0.16 0.7,0.16z"/>
  <g transform="matrix(0.938707 0 0 1 -6.7484E+002 166.558)">
   <text x="718.72" y="-161.3"  class="fil1 fnt0">Jasa Angkasa Semesta</text>
  </g>
 </g>
</svg>
